<?xml version="1.0" encoding="utf-8"?>
<!-- Generator: Adobe Illustrator 26.0.2, SVG Export Plug-In . SVG Version: 6.00 Build 0)  -->
<svg version="1.1" id="Layer_1" xmlns="http://www.w3.org/2000/svg" xmlns:xlink="http://www.w3.org/1999/xlink" x="0px" y="0px"
	 viewBox="0 0 423.6 168.5" style="enable-background:new 0 0 423.6 168.5;" xml:space="preserve">
<style type="text/css">
	.st0{display:none;}
	.st1{display:inline;fill:#21244E;stroke:#21244E;}
	.st2{display:inline;fill:#044024;stroke:#000000;}
	.st3{display:inline;fill:#FFFFFF;stroke:#D8D8D8;}
	.st4{display:inline;fill:none;stroke:#FFFFFF;stroke-width:48.765;}
	.st5{display:inline;fill:none;stroke:#FFFFFF;stroke-width:48.767;}
	.st6{display:inline;fill:#FFFFFF;stroke:#000000;stroke-width:5;}
	.st7{display:inline;fill:#FFFFFF;stroke:#000000;stroke-width:5;stroke-linejoin:round;}
	.st8{display:inline;fill:none;stroke:#000000;stroke-width:6;}
	.st9{display:inline;fill:none;stroke:#000000;stroke-width:5;}
	.st10{display:inline;fill:none;stroke:#000000;stroke-width:8;}
	.st11{display:inline;fill:none;stroke:#FFFFFF;stroke-width:4.8736;stroke-linecap:round;}
	.st12{display:inline;fill:#FFFFFF;stroke:#000000;stroke-width:3;stroke-linejoin:round;}
	.st13{display:none;fill:none;}
	.st14{display:none;fill:#E27D60;stroke:#000000;}
	.st15{fill:#FFFBFE;stroke:#FFFBFE;}
	.st16{fill:#FFFBFE;}
	.st17{font-family:'Mono45Headline-Bold';}
	.st18{font-size:73.7088px;}
	.st19{display:none;fill:#232020;stroke:#F2F2F2;enable-background:new    ;}
	.st20{font-family:'Mono45Headline-Regular';}
	.st21{font-family:'ArialMT';}
	.st22{display:none;fill:#FFFBFE;}
</style>
<g transform="translate(-14.342 -221.8)" class="st0">
	<path class="st1" d="M319.9-270c0,0,5.6-8.9,9.1-12.5c3.5-3.7,3.1-6.5,7.5-7.3c2.8-0.5,9.5,4.5,12.5,10.8c1.7,3.6,1.1,5.7,0.8,11.2
		L319.9-270z"/>
	<path class="st2" d="M438.2-278.3c0,0-26.2,3.9-56.2,4.6c-30,0.8-53.8-0.8-65.1-2.3c-12.2,5.6-37.4,47.8-65.5,83.6
		s-82.4,48.9-100.5,55.5c-18.1,6.6-48.9,9.2-64.7,17.3S69.6-96.9,69.6-96.9s114.8,19.6,162.5,22.3c47.7,2.7,221.1-1.2,221.1-1.2
		s2.3-27.7,1.2-44.7c-1.2-16.9-4.8-14.4-11.9-63.9C434.7-237.9,438.2-278.3,438.2-278.3L438.2-278.3z"/>
	<path class="st3" d="M379.6-228.6c22.3,0,40.4,17.5,40.4,39.1s-18.1,39.1-40.4,39.1s-40.4-17.5-40.4-39.1S357.3-228.6,379.6-228.6z
		"/>
	<path class="st4" d="M307.3-105.6c3.5,0,6.3,2.6,6.3,5.9s-2.8,5.9-6.3,5.9s-6.3-2.6-6.3-5.9C301-103,303.8-105.6,307.3-105.6z"/>
	<path class="st4" d="M263.3-106.3c3.5,0,6.3,2.6,6.3,5.9c0,3.3-2.8,5.9-6.3,5.9s-6.3-2.6-6.3-5.9
		C257-103.7,259.8-106.3,263.3-106.3z"/>
	<path class="st5" d="M310.7-256.4c3.3-2,7.3-1.5,8.7,1.2s0,6.5-3.4,8.5c-3.3,2-7.3,1.5-8.7-1.2S307.3-254.4,310.7-256.4z"/>
	<path class="st5" d="M293.3-225c3.3-2,7.3-1.5,8.7,1.2s0,6.5-3.4,8.5c-3.3,2-7.3,1.5-8.7-1.2S290-223,293.3-225z"/>
	<path class="st5" d="M274.1-196.5c3.3-2,7.3-1.5,8.7,1.2s0,6.5-3.4,8.5c-3.3,2-7.3,1.5-8.7-1.2
		C269.2-190.7,270.8-194.5,274.1-196.5z"/>
	<path class="st5" d="M248.7-171.4c3.3-2.1,7.2-1.5,8.7,1.2c1.5,2.7,0,6.6-3.3,8.7s-7.2,1.5-8.7-1.2
		C243.9-165.5,245.4-169.4,248.7-171.4z"/>
	<path class="st5" d="M220.2-153.7c3.6-1.5,7.4-0.2,8.4,2.7c1,3-1.2,6.5-4.8,8s-7.4,0.2-8.4-2.7
		C214.4-148.7,216.5-152.3,220.2-153.7z"/>
	<path class="st5" d="M188-139.9c3.6-1.2,7.2-0.2,8.2,2.2c1,2.4-1.1,5.3-4.7,6.5c-3.6,1.2-7.2,0.2-8.2-2.2
		C182.3-135.8,184.4-138.7,188-139.9z"/>
	<path class="st5" d="M155.6-131.3c3.6-1.2,7.2-0.2,8.2,2.2c1,2.4-1.1,5.3-4.7,6.5c-3.6,1.2-7.2,0.2-8.2-2.2
		C150-127.2,152.1-130.1,155.6-131.3z"/>
	<path class="st5" d="M123-123.8c3.7-0.5,7.1,1,7.7,3.3c0.5,2.3-2.1,4.6-5.8,5.1s-7.1-1-7.7-3.3C116.7-121,119.3-123.3,123-123.8z"
		/>
	<path class="st6" d="M34.1-109.9c4.4,5.8,29.9,10.3,37,13.2c10.1-5.8,35.6-25.7,27.3-26.7s-35.3-3.4-49.3,0.1
		C42.4-121.6,37.6-116.5,34.1-109.9L34.1-109.9z"/>
	<path class="st7" d="M457.6-84.8c0,0,3.1,32.6,2.1,42.2c-6.6,5.3-16.8,8.2-50.8,9.2c-33.9,1.1-122.5-3.7-163.3-3.7s-92.5,0-131-6.2
		s-88.9-18.6-92-26.3s2.1-28.1,3.9-33.1c1.5-4.3,6-7.8,7.2-11.5C74.6-95,195.3-82.6,271.8-81.5C349-80.5,457.6-84.8,457.6-84.8
		L457.6-84.8z"/>
	<path class="st8" d="M132.5-40.5c1.2-12.3,5.8-34.5,9.8-50.8"/>
	<path class="st9" d="M450.3-38.2l-0.4-38.9l7.9-1.3"/>
	<path class="st10" d="M135.1-59.7c0,0,41.9,4.7,70.3,6c26.2,1.2,95.6,2.2,114.9,2.2c21.8,0,92.9,1.9,107,1.6
		c14.2-0.3,23-3.7,23-3.7"/>
	<path class="st11" d="M83.5-102.3c0,0,82.6-10.3,120.5-20.1c37.9-9.8,60.2-28.8,87.8-59.7c27.5-30.9,31.7-58.6,50.9-89.6"/>
	<path class="st12" d="M314.9-253.9c-6-7.1-7.7-9-16.6-11.2c-3.3,1.7-7.1,8-7.6,10.6c8.1,0,9.5,4.8,21.7,5.4
		C313.4-250.7,314-251.2,314.9-253.9L314.9-253.9z"/>
	<path class="st12" d="M298-222.7c-6-7.1-8.3-8.4-17.2-10.6c-3.3,1.7-7.1,8-7.6,10.6c8.1,0,9.5,4.2,21.8,4.8
		C295.9-219.6,297-220,298-222.7L298-222.7z"/>
	<path class="st12" d="M277.1-194.8c-6-7.1-6.9-14.5-15.8-16.7c-3.3,1.7-6.8,6.4-7.2,9c6.5,4.8,11.4,5.2,21.4,13
		C276.5-191,276.2-192.1,277.1-194.8L277.1-194.8z"/>
	<path class="st12" d="M253.1-169.1c0.2-4.2-5.5-12.3-14.4-14.5c-3.3,1.7-6.9,4.3-7.3,6.9c4.2,2.4,10.2,10.5,19.2,12.5
		C251.6-165.9,252.2-166.4,253.1-169.1L253.1-169.1z"/>
	<path class="st12" d="M224.4-150.4c-2.5-4.8-2.1-10.7-4.9-17.4c-3.3,1.7-9.5,3-9.9,5.6c1.6,4.7,1.6,10.6,10,15.5
		C222.3-147.4,223.5-147.6,224.4-150.4L224.4-150.4z"/>
	<path class="st12" d="M193-136.6c-0.7-5.4-1.2-14.7,1.2-20.2c-3.6,0.4-9.8,2.3-11.1,4.6c-0.1,5,0.6,10.6,2.9,17.5
		C188.6-134.9,191-135.5,193-136.6L193-136.6z"/>
	<path class="st12" d="M160-127.8c1.8-5.5,3.1-10.3,3.5-15.5c-3.7-0.2-7.5,0.8-9.2,2.8c-2.1,2.8-4,9-0.4,14.2
		C156.6-125.5,157.9-125.9,160-127.8L160-127.8z"/>
	<path class="st12" d="M126.8-120.4c0.2-5.5,3.9-9.9,4.6-12.9c-3.7-0.2-10.2,1.3-11.9,3.3c-1.4,3.8-1.9,6.3,1.4,10.2
		C123.5-118.8,124.7-118.4,126.8-120.4L126.8-120.4z"/>
</g>
<rect x="374.5" y="-22.3" class="st13" width="238.6" height="221.6"/>
<polygon class="st13" points="883.2,29.7 889.2,29.7 889.2,29.7 "/>
<rect x="686.4" y="60.4" class="st13" width="4.3" height="5.1"/>
<path class="st14" d="M218.3-428.7h-1.1c-6.8,0-7.3,6.4-7.4,8.1v11.4c0,3.5-3.3,0.3-3.6,0.1l-25.3-25.1l-98-98.5l0,0
	c-5-5-9.8-0.1-9.9,0L-29.9-430.2l0,0l-1.2,1.2c-0.3,0.3-0.6,0.8-0.9,1.2l-17.4,17.2c-3.7,3.7-3.8,0-3.8,0v-11c0-6.5-4.7-7.1-6.2-7.1
	h-1.7c0,0-7.4-0.1-7.4,7.3v13.1v16.4v17.7c0,0,0,9.1,6.8,9.1h1.5c1.4,0,6.8-0.7,6.8-9.2v-7.8c0-7.2,3.4-10.5,3.4-10.5l12.3-12.2
	c0.6-0.5,2.7-2.3,2.7,0.1v31.5c0,2,0.8,8.1,8.4,8.1H25h2.8c9,0,11.4-6.7,11.5-7l36.4-104l0,0c0,0,2.3-5,4.1,0l0,0l36.9,103
	c0,0,2.5,8,12.8,8h0.8h50.9c8.3,0,9.2-6.1,9.2-8.2v-27.6c0,0,0.4-5.9,6.4,0l9.8,9.7c0,0,3.2,3.3,3.2,8.3v10.7c0,1.6,0.6,7.1,6.7,7.1
	h0.4c8,0.4,8-10.1,8-10.1v-4.8v-10.7v-28.6C225-427.9,219.9-428.7,218.3-428.7z"/>
<g>
	<line class="st15" x1="207.7" y1="3.7" x2="207.7" y2="156.7"/>
	<text transform="matrix(0.6793 0 0 1 225.332 62.21)" class="st16 st17 st18">RockSolid</text>
	<text transform="matrix(0.6793 0 0 1 225.332 62.21)" class="st19 st20 st18">RockSolid</text>
	<text transform="matrix(0.6793 0 0 1 225.332 150.6612)" class="st16 st17 st18">Equipment</text>
	<text transform="matrix(0.6793 0 0 1 225.332 150.6612)" class="st19 st21 st18">Equipment</text>
	<g id="colored_x5F_line">
		<g>
			<path class="st22" d="M7.1,143.5l-0.7,4.5c0,0-1.4,4.4-1.8,6.3c-0.3-2.1-0.8-5.2-1.1-6.9c-1-7.2-1.5-9.5-2.5-16.7
				c-0.1-0.4-0.1-0.9,0.1-1.2c0.1-0.1,0.2-0.2,0.3-0.3c0.8-0.5,1.7-0.8,2.5-1c0.1,0,0.3-0.1,0.5,0.1c0.2,0.1,0.3,0.4,0.4,0.8
				C5.8,136.1,6.4,138.4,7.1,143.5z"/>
			<path class="st22" d="M193.9,133c0.1,0.3,0,0.7-0.1,1.1c-0.9,5.8-2.6,13.1-4,18.7c0,0-0.9-4.5-1.7-7.7l0,0
				c0.9-4.5,1.6-9.2,2.5-13.8c0.9-0.6,2,0,2.7,0.7C193.5,132.2,193.7,132.5,193.9,133z"/>
			<path class="st22" d="M189.8,152.6L189.8,152.6c-32.6,3.1-97.8,2.6-102.6,2.4L62.9,90.7L43.6,13.8c46.2,5.9,78.3,4.8,105.4,0.7
				c12,34.1,19.5,59.6,30.2,96c1.2,4.1,6.1,22.7,8.9,34.6C188.9,148.1,189.5,150.8,189.8,152.6z"/>
			<path class="st22" d="M43.6,13.7c-13,41.2-26,84.7-36.5,129.9c-0.9,3.6-1.7,7.2-2.5,10.9c3.8,0.2,6.6,0.5,8.8,0.6
				c0,0,30.8,0.2,43.6-0.4c14.8,0.4,17.9-0.5,30,0.5C87.1,154.7,58,60.6,43.6,13.7z"/>
			<g id="XMLID_21_" class="st0">
				<g>
					<path class="st16" d="M93.4,135c0,0.1,0,0.3,0,0.4c-1.1,6.3-2.3,13.4-3.3,19.7c-0.1,0.4-3.2,0.3-3.3-0.1c0,0,2.3-14.3,3.3-21.3
						c1,0.3,2,0.6,3,1C93.2,134.7,93.3,134.8,93.4,135z"/>
					<path class="st16" d="M53.5,142.4c-1.9,7.2,0.5,12.1,3.6,12.1c-4.8,0-8.6-3-10.6-6.9c-3.3-6.6-2.9-12-2.9-21.4
						c0.1,5.3,0.7,10.1,2.5,12.7C48.7,142.2,50.1,142.5,53.5,142.4z"/>
					<path class="st16" d="M46.5,147.6c2,3.9,7.7,6.9,10.6,6.9c-12.8,0.6-43.6,0.4-43.6,0.4c3.9,0.1,6.2-0.4,9-2.7
						c1.8-1.5,3.1-3.1,3.9-5c5.8-10.5,8.7-21.3,10.4-29.7c2.6-13.2,6.6-32.6,6.8-100.5l0,0c0-0.2,0-0.3,0-0.5
						c0,50.9,0.1,95.2,0,104.7c0,1.7,0,3.3,0,5l0,0C43.6,135.6,43.2,140.9,46.5,147.6z"/>
					<path class="st16" d="M43.6,17c-0.2,68-4.2,87.4-6.8,100.5c-1.7,8.3-4.6,19.2-10.4,29.7c1.3-3,1.5-6.6,0.9-11.4
						c-0.4-3-2.1-5-3.2-6.9c0,0,2.8-6.8,3.6-9C39,88.5,42.9,54.8,43.6,17z"/>
				</g>
			</g>
			<path class="st16" d="M194.3,131.3c-1.1-1.6-3.2-2.7-4.5-1c-0.9,3.1-1.2,6.5-1.9,9.9c-4.8-19.7-10.2-39.1-16.1-58.2
				C164.5,59,158.1,33.8,149,12.8c-35.1,5.4-70.4,3.8-105.4-0.7c-0.5-0.1-0.8,0.3-0.9,0.9c-2.7,8.8-5.5,17.6-8.2,26.4
				c-9.9,32.4-19.3,65.2-27.2,98.8c-0.5-2.9-0.9-5.8-1.3-8.7c-0.1-4.3-3.5-2.7-5.2-1.5c-1.9,1.3,1.2,12.8,1.3,15.9
				c0.5,3.5,1,6.9,1.5,10.5c0,0.8,0.5,1.4,1,1.5c2.9,0.1,5.9,0.6,8.9,0.6l0,0c6.3,0.2,12.6,0.2,18.8,0.1c6.2-0.1,12.4-0.2,18.6-0.3
				c2.4,0,4.8-0.1,7.1-0.1c4.1,0.2,8.3-0.5,12.2-0.1c18.8,0.5,37.6-0.5,56.4-0.3c21.1,0.1,42.1,0.4,63.1-1.5c0.5,0,0.9-0.6,1-1.3
				c1.2-4.9,2.4-10,3.4-15C194.5,135.7,195.4,133.2,194.3,131.3z M2.4,132.5c-0.1-0.7-0.2-1.3-0.3-2c0.6-0.3,1.3-0.6,1.9-0.7
				c0.6,4.6,1.4,9.2,2.1,13.9c-0.4,1.7-0.8,3.4-1.2,5.2C4.1,143.3,3.2,137.9,2.4,132.5z M42.5,20.9C41.7,58,37,96,23.5,127.7
				c-1.1,2.5,1.9,4.4,2.5,6.7c1.4,4.5,1.1,10.5-1.4,14c-5,7-12.3,4.9-18.5,4.6C16.1,107.7,28.9,64,42.5,20.9z M25.4,128.7
				c8.4-20.1,13.6-43,16.3-66.5c-0.3,8.1-0.8,16.2-1.5,24.2c-1.8,18.7-4.4,38-11.6,53.8C28.9,135.8,27.5,131.7,25.4,128.7z
				 M17.5,153.7C17.4,153.7,17.4,153.7,17.5,153.7L17.5,153.7z M42.7,153.5c-6.4,0.1-12.8,0.2-19.1,0.2c-0.3,0-0.7,0-1,0
				c0.9-0.7,1.8-1.6,2.7-2.8c11.7-18.6,15.1-45,17-69.7c0,13.1,0,26,0,39.1c0.1,10.3-1.3,22.2,4.2,30c0.9,1.2,1.8,2.1,2.8,2.9
				C47,153.4,44.8,153.5,42.7,153.5z M52.6,152c-0.4-0.2-0.7-0.4-1.1-0.6c-2.7-1.6-4.8-5-5.9-9l0,0c-0.3-1.1-0.5-2.3-0.7-3.4
				c1.8,3.2,4.4,5.3,7.2,5.1C51.6,146.7,51.6,149.6,52.6,152z M75.4,152.7c-3.5,0-7,0.1-10.4,0.1c-2.8,0-5.5,0-8.3-0.1
				c-1.3,0.1-2.5-1.3-2.9-3c-1.7-6.3,3.7-9.4-3.5-9.1l0,0c-0.5-0.1-0.9-0.3-1.4-0.6l0,0c-1-0.6-2.5-2.6-2.9-3.3
				c-3-7.5-1.4-17-1.7-25.3c0-30.4,0-60.7,0-91.1c13.6,44.3,27.2,88.6,40.9,132.9C81.8,152.9,78.6,152.7,75.4,152.7z M88.1,153.7
				c0.7-5,1.5-10,2.2-14.9c0.1-1,0.3-2.1,0.5-3.1c0.5,0.1,0.9,0.3,1.5,0.5c-1,5.8-1.9,11.7-2.9,17.5
				C88.9,153.7,88.5,153.7,88.1,153.7z M149.5,152.8c-19.4,0.1-38.8-0.4-58.1,0.5c0.8-4.5,1.5-9.1,2.3-13.7c0.1-1.8,1.2-4,0.3-5.7
				c-0.4-0.7-1.3-0.8-1.9-1.1c-1-0.2-2.7-1.5-3.1,0.5c-0.8,5.5-1.7,11.1-2.5,16.6C72.7,105.1,59,60.3,45.2,15.5
				c34.3,4.3,69,5.8,103.2,0.6c14.9,43.9,29.3,88.6,40.1,135.3C175.5,152.4,162.5,152.7,149.5,152.8z M192.8,133.7
				c-0.7,4.8-1.9,9.6-2.9,14.2c-0.2-1-0.5-2-0.7-3c0.9-4.1,1.5-8.3,2.3-12.5c0.4,0,0.7,0.2,1.1,0.5c0.1,0.1,0.3,0.3,0.3,0.4
				C192.9,133.5,192.8,133.6,192.8,133.7z M192.9,133.4L192.9,133.4L192.9,133.4L192.9,133.4z"/>
		</g>
	</g>
</g>
</svg>
