<?xml version="1.0" encoding="utf-8"?>
<!-- Generator: Adobe Illustrator 26.0.2, SVG Export Plug-In . SVG Version: 6.00 Build 0)  -->
<svg version="1.1" id="Layer_1" xmlns="http://www.w3.org/2000/svg" xmlns:xlink="http://www.w3.org/1999/xlink" x="0px" y="0px"
	 viewBox="0 0 817.8 479" style="enable-background:new 0 0 817.8 479;" xml:space="preserve">
<style type="text/css">
	.st0{display:none;}
	.st1{display:inline;fill:#21244E;stroke:#21244E;}
	.st2{display:inline;fill:#044024;stroke:#000000;}
	.st3{display:inline;fill:#FFFFFF;stroke:#D8D8D8;}
	.st4{display:inline;fill:none;stroke:#FFFFFF;stroke-width:48.765;}
	.st5{display:inline;fill:none;stroke:#FFFFFF;stroke-width:48.767;}
	.st6{display:inline;fill:#FFFFFF;stroke:#000000;stroke-width:5;}
	.st7{display:inline;fill:#FFFFFF;stroke:#000000;stroke-width:5;stroke-linejoin:round;}
	.st8{display:inline;fill:none;stroke:#000000;stroke-width:6;}
	.st9{display:inline;fill:none;stroke:#000000;stroke-width:5;}
	.st10{display:inline;fill:none;stroke:#000000;stroke-width:8;}
	.st11{display:inline;fill:none;stroke:#FFFFFF;stroke-width:4.8736;stroke-linecap:round;}
	.st12{display:inline;fill:#FFFFFF;stroke:#000000;stroke-width:3;stroke-linejoin:round;}
	.st13{fill:#F2F2F2;stroke:#F2F2F2;}
	.st14{fill:none;}
	.st15{display:none;fill:none;}
	.st16{enable-background:new    ;}
	.st17{fill:#E27D60;stroke:#F2F2F2;}
	.st18{font-family:'AWConquerorStdCarved-Regular';}
	.st19{font-size:71.1675px;}
	.st20{display:none;fill:#E27D60;stroke:#000000;}
	.st21{fill:#57414E;}
	.st22{fill:#F2F2F2;}
</style>
<g transform="translate(-14.342 -221.8)" class="st0">
	<path class="st1" d="M359.7-155.7c0,0,5.6-8.9,9.1-12.5c3.5-3.7,3.1-6.5,7.5-7.3c2.8-0.5,9.5,4.5,12.5,10.8
		c1.7,3.6,1.1,5.7,0.8,11.2L359.7-155.7z"/>
	<path class="st2" d="M478-164c0,0-26.2,3.9-56.2,4.6c-30,0.8-53.8-0.8-65.1-2.3c-12.2,5.6-37.4,47.8-65.5,83.6
		s-82.4,48.9-100.5,55.5S141.8-13.4,126-5.3s-16.6,22.7-16.6,22.7S224.2,37,271.9,39.7S493,38.5,493,38.5s2.3-27.7,1.2-44.7
		c-1.2-16.9-4.8-14.4-11.9-63.9C474.5-123.6,478-164,478-164L478-164z"/>
	<path class="st3" d="M419.4-114.3c22.3,0,40.4,17.5,40.4,39.1s-18.1,39.1-40.4,39.1S379-53.6,379-75.2S397.1-114.3,419.4-114.3z"/>
	<path class="st4" d="M347.1,8.7c3.5,0,6.3,2.6,6.3,5.9s-2.8,5.9-6.3,5.9s-6.3-2.6-6.3-5.9S343.6,8.7,347.1,8.7z"/>
	<path class="st4" d="M303.1,8c3.5,0,6.3,2.6,6.3,5.9s-2.8,5.9-6.3,5.9s-6.3-2.6-6.3-5.9S299.6,8,303.1,8z"/>
	<path class="st5" d="M350.5-142.1c3.3-2,7.3-1.5,8.7,1.2s0,6.5-3.4,8.5c-3.3,2-7.3,1.5-8.7-1.2S347.1-140.1,350.5-142.1z"/>
	<path class="st5" d="M333.1-110.7c3.3-2,7.3-1.5,8.7,1.2s0,6.5-3.4,8.5c-3.3,2-7.3,1.5-8.7-1.2S329.8-108.7,333.1-110.7z"/>
	<path class="st5" d="M313.9-82.2c3.3-2,7.3-1.5,8.7,1.2s0,6.5-3.4,8.5c-3.3,2-7.3,1.5-8.7-1.2C309-76.4,310.6-80.2,313.9-82.2z"/>
	<path class="st5" d="M288.5-57.1c3.3-2.1,7.2-1.5,8.7,1.2s0,6.6-3.3,8.7s-7.2,1.5-8.7-1.2C283.7-51.2,285.2-55.1,288.5-57.1z"/>
	<path class="st5" d="M260-39.4c3.6-1.5,7.4-0.2,8.4,2.7c1,3-1.2,6.5-4.8,8s-7.4,0.2-8.4-2.7C254.2-34.4,256.3-38,260-39.4z"/>
	<path class="st5" d="M227.8-25.6c3.6-1.2,7.2-0.2,8.2,2.2c1,2.4-1.1,5.3-4.7,6.5c-3.6,1.2-7.2,0.2-8.2-2.2S224.2-24.4,227.8-25.6z"
		/>
	<path class="st5" d="M195.4-17c3.6-1.2,7.2-0.2,8.2,2.2c1,2.4-1.1,5.3-4.7,6.5s-7.2,0.2-8.2-2.2C189.8-12.9,191.9-15.8,195.4-17z"
		/>
	<path class="st5" d="M162.8-9.5c3.7-0.5,7.1,1,7.7,3.3c0.5,2.3-2.1,4.6-5.8,5.1s-7.1-1-7.7-3.3C156.5-6.7,159.1-9,162.8-9.5z"/>
	<path class="st6" d="M73.9,4.4c4.4,5.8,29.9,10.3,37,13.2c10.1-5.8,35.6-25.7,27.3-26.7S102.9-12.5,88.9-9
		C82.2-7.3,77.4-2.2,73.9,4.4L73.9,4.4z"/>
	<path class="st7" d="M497.4,29.5c0,0,3.1,32.6,2.1,42.2c-6.6,5.3-16.8,8.2-50.8,9.2c-33.9,1.1-122.5-3.7-163.3-3.7s-92.5,0-131-6.2
		s-88.9-18.6-92-26.3c-3.1-7.7,2.1-28.1,3.9-33.1c1.5-4.3,6-7.8,7.2-11.5c40.9,19.2,161.6,31.6,238.1,32.7
		C388.8,33.8,497.4,29.5,497.4,29.5L497.4,29.5z"/>
	<path class="st8" d="M172.3,73.8c1.2-12.3,5.8-34.5,9.8-50.8"/>
	<path class="st9" d="M490.1,76.1l-0.4-38.9l7.9-1.3"/>
	<path class="st10" d="M174.9,54.6c0,0,41.9,4.7,70.3,6c26.2,1.2,95.6,2.2,114.9,2.2c21.8,0,92.9,1.9,107,1.6
		c14.2-0.3,23-3.7,23-3.7"/>
	<path class="st11" d="M123.3,12c0,0,82.6-10.3,120.5-20.1c37.9-9.8,60.2-28.8,87.8-59.7c27.5-30.9,31.7-58.6,50.9-89.6"/>
	<path class="st12" d="M354.7-139.6c-6-7.1-7.7-9-16.6-11.2c-3.3,1.7-7.1,8-7.6,10.6c8.1,0,9.5,4.8,21.7,5.4
		C353.2-136.4,353.8-136.9,354.7-139.6L354.7-139.6z"/>
	<path class="st12" d="M337.8-108.4c-6-7.1-8.3-8.4-17.2-10.6c-3.3,1.7-7.1,8-7.6,10.6c8.1,0,9.5,4.2,21.8,4.8
		C335.7-105.3,336.8-105.7,337.8-108.4L337.8-108.4z"/>
	<path class="st12" d="M316.9-80.5c-6-7.1-6.9-14.5-15.8-16.7c-3.3,1.7-6.8,6.4-7.2,9c6.5,4.8,11.4,5.2,21.4,13
		C316.3-76.7,316-77.8,316.9-80.5L316.9-80.5z"/>
	<path class="st12" d="M292.9-54.8c0.2-4.2-5.5-12.3-14.4-14.5c-3.3,1.7-6.9,4.3-7.3,6.9c4.2,2.4,10.2,10.5,19.2,12.5
		C291.4-51.6,292-52.1,292.9-54.8L292.9-54.8z"/>
	<path class="st12" d="M264.2-36.1c-2.5-4.8-2.1-10.7-4.9-17.4c-3.3,1.7-9.5,3-9.9,5.6c1.6,4.7,1.6,10.6,10,15.5
		C262.1-33.1,263.3-33.3,264.2-36.1L264.2-36.1z"/>
	<path class="st12" d="M232.8-22.3c-0.7-5.4-1.2-14.7,1.2-20.2c-3.6,0.4-9.8,2.3-11.1,4.6c-0.1,5,0.6,10.6,2.9,17.5
		C228.4-20.6,230.8-21.2,232.8-22.3L232.8-22.3z"/>
	<path class="st12" d="M199.8-13.5c1.8-5.5,3.1-10.3,3.5-15.5c-3.7-0.2-7.5,0.8-9.2,2.8c-2.1,2.8-4,9-0.4,14.2
		C196.4-11.2,197.7-11.6,199.8-13.5L199.8-13.5z"/>
	<path class="st12" d="M166.6-6.1c0.2-5.5,3.9-9.9,4.6-12.9c-3.7-0.2-10.2,1.3-11.9,3.3c-1.4,3.8-1.9,6.3,1.4,10.2
		C163.3-4.5,164.5-4.1,166.6-6.1L166.6-6.1z"/>
</g>
<line class="st13" x1="335.9" y1="96.3" x2="335.9" y2="315.1"/>
<rect x="414.3" y="92" class="st14" width="238.6" height="221.6"/>
<polygon class="st15" points="923,144 929,144 929,144 "/>
<rect x="726.2" y="174.7" class="st14" width="4.3" height="5.1"/>
<text transform="matrix(1 0 0 1 352.4382 184.6294)" class="st16"><tspan x="0" y="0" class="st17 st18 st19">RockSolid</tspan><tspan x="0" y="85.4" class="st17 st18 st19">Equipment</tspan></text>
<path class="st20" d="M258.1-314.4H257c-6.8,0-7.3,6.4-7.4,8.1v11.4c0,3.5-3.3,0.3-3.6,0.1l-25.3-25.1l-98-98.5h0
	c-5-5-9.8-0.1-9.9,0L9.9-315.9l0,0l-1.2,1.2c-0.3,0.3-0.6,0.8-0.9,1.2l-17.4,17.2c-3.7,3.7-3.8,0-3.8,0v-11c0-6.5-4.7-7.1-6.2-7.1
	h-1.7c0,0-7.4-0.1-7.4,7.3v13.1v16.4v17.7c0,0,0,9.1,6.8,9.1h1.5c1.4,0,6.8-0.7,6.8-9.2v-7.8c0-7.2,3.4-10.5,3.4-10.5l12.3-12.2
	c0.6-0.5,2.7-2.3,2.7,0.1v31.5c0,2,0.8,8.1,8.4,8.1h51.6h2.8c9,0,11.4-6.7,11.5-7l36.4-104h0c0,0,2.3-5,4.1,0c0,0,0,0,0,0l36.9,103
	c0,0,2.5,8,12.8,8h0.8H221c8.3,0,9.2-6.1,9.2-8.2v-27.6c0,0,0.4-5.9,6.4,0l9.8,9.7c0,0,3.2,3.3,3.2,8.3v10.7c0,1.6,0.6,7.1,6.7,7.1
	h0.4c8,0.4,8-10.1,8-10.1v-4.8v-10.7V-305C264.8-313.6,259.7-314.4,258.1-314.4z"/>
<g id="colored_x5F_line">
	<g>
		<path class="st21" d="M41.9,269.8l-1,4.5c0,0-2.1,4.4-2.7,6.3c-0.5-2.1-1.2-5.2-1.6-6.9c-1.5-7.2-2.3-9.4-3.8-16.6
			c-0.1-0.4-0.2-0.9,0.1-1.2c0.1-0.1,0.3-0.2,0.5-0.3c1.2-0.5,2.5-0.8,3.8-1c0.2,0,0.5-0.1,0.7,0.1c0.3,0.1,0.5,0.4,0.6,0.8
			C39.9,262.4,40.8,264.7,41.9,269.8z"/>
		<path class="st21" d="M323,259.3c0.1,0.3,0,0.7-0.1,1.1c-1.4,5.8-3.9,13-6,18.6c0,0-1.4-4.5-2.5-7.7l0,0c1.4-4.5,2.4-9.2,3.8-13.7
			c1.4-0.6,3,0,4,0.7C322.5,258.5,322.8,258.8,323,259.3z"/>
		<path class="st22" d="M316.9,278.8C316.9,278.8,316.9,278.8,316.9,278.8c-49,3.1-147.2,2.6-154.5,2.4l-36.6-64l-29-76.5
			c69.6,5.9,117.8,4.8,158.7,0.7c18,33.9,29.4,59.3,45.5,95.5c1.8,4.1,9.2,22.6,13.4,34.4C315.5,274.3,316.4,277,316.9,278.8z"/>
		<path class="st22" d="M96.8,140.6c-19.5,41-39.1,84.2-54.9,129.2c-1.3,3.6-2.5,7.2-3.7,10.8c5.7,0.2,9.9,0.5,13.3,0.6
			c0,0,46.3,0.2,65.6-0.4c22.3,0.4,27-0.5,45.2,0.5C162.2,280.9,118.4,187.3,96.8,140.6z"/>
		<g id="XMLID_21_">
			<g>
				<path class="st21" d="M171.7,261.3c0,0.1,0,0.3,0,0.4c-1.6,6.3-3.4,13.3-5,19.6c-0.1,0.4-4.8,0.3-5-0.1c0,0,3.5-14.2,5-21.2
					c1.5,0.3,3,0.6,4.5,1C171.4,261,171.6,261.1,171.7,261.3z"/>
				<path class="st22" d="M111.7,268.7c-2.8,7.2,0.7,12,5.4,12c-7.2,0-13-3-16-6.9c-5-6.6-4.4-11.9-4.3-21.3c0.2,5.3,1,10,3.8,12.6
					C104.5,268.5,106.5,268.8,111.7,268.7z"/>
				<path class="st22" d="M101.1,273.8c3,3.9,11.6,6.9,16,6.9c-19.2,0.6-65.6,0.4-65.6,0.4c5.8,0.1,9.3-0.4,13.6-2.7
					c2.7-1.5,4.6-3.1,5.9-5c8.7-10.4,13.1-21.2,15.6-29.5c3.9-13.1,9.9-32.4,10.2-100c0,0,0,0,0,0c0-0.2,0-0.3,0-0.5
					c0,50.6,0.1,94.7,0,104.1c0,1.7,0,3.3,0,5l0,0C96.8,261.9,96.2,267.2,101.1,273.8z"/>
				<path class="st22" d="M96.8,143.9c-0.3,67.6-6.3,86.9-10.2,100c-2.5,8.3-6.9,19.1-15.6,29.5c2-3,2.3-6.6,1.3-11.3
					c-0.6-3-3.2-5-4.8-6.9c0,0,4.2-6.8,5.4-9C89.9,215,95.8,181.5,96.8,143.9z"/>
			</g>
		</g>
		<path class="st21" d="M323.7,257.6c-1.6-1.6-4.8-2.7-6.7-1c-1.3,3.1-1.8,6.5-2.8,9.8c-7.3-19.6-15.4-38.9-24.3-57.9
			c-11.1-22.8-20.8-47.9-34.5-68.7c-52.8,5.4-106,3.8-158.7-0.7c-0.7-0.1-1.2,0.3-1.4,0.9c-4.1,8.8-8.3,17.5-12.4,26.3
			c-14.9,32.2-29,64.9-40.9,98.3c-0.7-2.9-1.4-5.8-2-8.7c-0.2-4.3-5.3-2.7-7.9-1.5c-2.9,1.3,1.8,12.7,2,15.8
			c0.8,3.5,1.5,6.9,2.3,10.4c0,0.8,0.8,1.4,1.5,1.5c4.3,0.1,8.9,0.6,13.4,0.6h0c9.5,0.2,18.9,0.2,28.3,0.1c9.3-0.1,18.7-0.2,28-0.3
			c3.6,0,7.2-0.1,10.7-0.1c6.1,0.2,12.5-0.5,18.3-0.1c28.3,0.5,56.6-0.5,84.9-0.3c31.7,0.1,63.4,0.4,95-1.5c0.8,0,1.4-0.6,1.5-1.3
			c1.8-4.9,3.6-9.9,5.1-14.9C323.9,262,325.3,259.5,323.7,257.6z M34.7,258.8c-0.1-0.7-0.3-1.3-0.4-2c0.9-0.3,1.9-0.6,2.9-0.7
			c0.9,4.6,2.1,9.2,3.1,13.8c-0.6,1.7-1.2,3.4-1.8,5.2C37.3,269.6,35.9,264.2,34.7,258.8z M95.1,147.8
			c-1.1,36.9-8.3,74.7-28.5,106.2c-1.7,2.5,2.9,4.4,3.7,6.7c2.1,4.5,1.7,10.4-2.1,13.9c-7.5,7-18.5,4.9-27.8,4.6
			C55.4,234.1,74.7,190.7,95.1,147.8z M69.4,255c12.7-20,20.5-42.8,24.6-66.1c-0.5,8.1-1.2,16.1-2.2,24.1
			c-2.7,18.6-6.6,37.8-17.4,53.5C74.6,262.1,72.6,258,69.4,255z M57.5,279.4C57.4,279.4,57.3,279.4,57.5,279.4L57.5,279.4z
			 M96.1,279.6c-9.6,0.1-19.2,0.2-28.8,0.2c-0.5,0-1,0-1.5,0c1.4-0.7,2.7-1.6,4-2.8c17.6-18.5,22.7-44.8,25.6-69.3
			c0,13,0,25.9,0,38.9c0.2,10.2-1.9,22.1,6.3,29.8c1.3,1.2,2.7,2.1,4.2,2.9C102.6,279.5,99.3,279.6,96.1,279.6z M110.3,278.2
			c-0.6-0.2-1.1-0.4-1.6-0.6c-4-1.6-7.2-5-8.9-9l0,0c-0.5-1.1-0.8-2.3-1-3.4c2.7,3.2,6.6,5.3,10.9,5.1
			C108.9,272.9,108.9,275.8,110.3,278.2z M145.3,279.2c-5.2,0-10.5,0.1-15.7,0.1c-4.2,0-8.3,0-12.5-0.1c-2,0.1-3.7-1.3-4.4-3
			c-2.5-6.3,5.5-9.3-5.2-9.1l0,0c-0.7-0.1-1.4-0.3-2.1-0.6l0,0c-1.5-0.6-3.8-2.6-4.4-3.3c-4.5-7.5-2.1-16.9-2.6-25.2
			c0-30.2,0-60.4,0-90.6c20.5,44.1,41,88.1,61.6,132.2C155,279.4,150.1,279.2,145.3,279.2z M163.8,279.6c1.1-5,2.2-9.9,3.3-14.8
			c0.2-1,0.5-2.1,0.7-3.1c0.7,0.1,1.4,0.3,2.2,0.5c-1.5,5.8-2.9,11.6-4.4,17.4C165,279.6,164.4,279.6,163.8,279.6z M256.2,279
			c-29.2,0.1-58.4-0.4-87.5,0.5c1.2-4.5,2.3-9.1,3.5-13.6c0.2-1.8,1.8-4,0.5-5.7c-0.6-0.7-1.9-0.8-2.8-1.1c-1.5-0.2-4-1.5-4.7,0.5
			c-1.2,5.5-2.5,11-3.7,16.5c-20.9-44.5-41.6-89.1-62.3-133.7c51.7,4.3,103.8,5.8,155.4,0.6c22.5,43.7,44.1,88.1,60.3,134.6
			C295.4,278.6,275.8,278.9,256.2,279z M321.4,260c-1.1,4.8-2.8,9.5-4.4,14.1c-0.3-1-0.7-2-1-3c1.3-4.1,2.2-8.3,3.4-12.4
			c0.6,0,1.1,0.2,1.6,0.5c0.1,0.1,0.4,0.3,0.5,0.4C321.5,259.8,321.4,259.9,321.4,260z M321.5,259.7L321.5,259.7L321.5,259.7
			L321.5,259.7z"/>
	</g>
</g>
</svg>
