<?xml version="1.0" encoding="utf-8"?>
<!-- Generator: Adobe Illustrator 26.0.2, SVG Export Plug-In . SVG Version: 6.00 Build 0)  -->
<svg version="1.1" id="Layer_1" xmlns="http://www.w3.org/2000/svg" xmlns:xlink="http://www.w3.org/1999/xlink" x="0px" y="0px"
	 viewBox="0 0 817.8 479" style="enable-background:new 0 0 817.8 479;" xml:space="preserve">
<style type="text/css">
	.st0{fill:#21244E;stroke:#21244E;}
	.st1{fill:#044024;stroke:#000000;}
	.st2{fill:#FFFFFF;stroke:#D8D8D8;}
	.st3{fill:none;stroke:#FFFFFF;stroke-width:48.765;}
	.st4{fill:none;stroke:#FFFFFF;stroke-width:48.767;}
	.st5{fill:#FFFFFF;stroke:#000000;stroke-width:5;}
	.st6{fill:#FFFFFF;stroke:#000000;stroke-width:5;stroke-linejoin:round;}
	.st7{fill:none;stroke:#000000;stroke-width:6;}
	.st8{fill:none;stroke:#000000;stroke-width:5;}
	.st9{fill:none;stroke:#000000;stroke-width:8;}
	.st10{fill:none;stroke:#FFFFFF;stroke-width:4.8736;stroke-linecap:round;}
	.st11{fill:#FFFFFF;stroke:#000000;stroke-width:3;stroke-linejoin:round;}
	.st12{fill:none;stroke:#21244E;}
	.st13{fill:none;}
	.st14{display:none;}
	.st15{font-family:'Chantal-Medium';}
	.st16{font-size:120px;}
</style>
<g transform="translate(-14.342 -221.8)">
	<path class="st0" d="M332.3,333.2c0,0,5.6-8.9,9.1-12.5c3.5-3.7,3.1-6.5,7.5-7.3c2.8-0.5,9.5,4.5,12.5,10.8
		c1.7,3.6,1.1,5.7,0.8,11.2L332.3,333.2z"/>
	<path class="st1" d="M450.6,324.9c0,0-26.2,3.9-56.2,4.6c-30,0.8-53.8-0.8-65.1-2.3c-12.2,5.6-37.4,47.8-65.5,83.6
		c-28.1,35.8-82.4,48.9-100.5,55.5s-48.9,9.2-64.7,17.3S82,506.3,82,506.3s114.8,19.6,162.5,22.3s221.1-1.2,221.1-1.2
		s2.3-27.7,1.2-44.7c-1.2-16.9-4.8-14.4-11.9-63.9C447.1,365.3,450.6,324.9,450.6,324.9L450.6,324.9z"/>
	<path class="st2" d="M392,374.6c22.3,0,40.4,17.5,40.4,39.1s-18.1,39.1-40.4,39.1c-22.3,0-40.4-17.5-40.4-39.1
		S369.7,374.6,392,374.6z"/>
	<path class="st3" d="M319.7,497.6c3.5,0,6.3,2.6,6.3,5.9s-2.8,5.9-6.3,5.9c-3.5,0-6.3-2.6-6.3-5.9S316.2,497.6,319.7,497.6z"/>
	<path class="st3" d="M275.7,496.9c3.5,0,6.3,2.6,6.3,5.9s-2.8,5.9-6.3,5.9s-6.3-2.6-6.3-5.9S272.2,496.9,275.7,496.9z"/>
	<path class="st4" d="M323.1,346.8c3.3-2,7.3-1.5,8.7,1.2s0,6.5-3.4,8.5c-3.3,2-7.3,1.5-8.7-1.2S319.7,348.8,323.1,346.8z"/>
	<path class="st4" d="M305.7,378.2c3.3-2,7.3-1.5,8.7,1.2s0,6.5-3.4,8.5c-3.3,2-7.3,1.5-8.7-1.2C300.9,384,302.4,380.2,305.7,378.2z
		"/>
	<path class="st4" d="M286.5,406.7c3.3-2,7.3-1.5,8.7,1.2s0,6.5-3.4,8.5c-3.3,2-7.3,1.5-8.7-1.2
		C281.6,412.5,283.2,408.7,286.5,406.7z"/>
	<path class="st4" d="M261.1,431.8c3.3-2.1,7.2-1.5,8.7,1.2c1.5,2.7,0,6.6-3.3,8.7c-3.3,2.1-7.2,1.5-8.7-1.2
		C256.3,437.7,257.8,433.8,261.1,431.8z"/>
	<path class="st4" d="M232.6,449.5c3.6-1.5,7.4-0.2,8.4,2.7c1,3-1.2,6.5-4.8,8s-7.4,0.2-8.4-2.7
		C226.8,454.5,228.9,450.9,232.6,449.5z"/>
	<path class="st4" d="M200.4,463.3c3.6-1.2,7.2-0.2,8.2,2.2c1,2.4-1.1,5.3-4.7,6.5c-3.6,1.2-7.2,0.2-8.2-2.2
		S196.8,464.5,200.4,463.3z"/>
	<path class="st4" d="M168,471.9c3.6-1.2,7.2-0.2,8.2,2.2c1,2.4-1.1,5.3-4.7,6.5s-7.2,0.2-8.2-2.2C162.4,476,164.5,473.1,168,471.9z
		"/>
	<path class="st4" d="M135.4,479.4c3.7-0.5,7.1,1,7.7,3.3c0.5,2.3-2.1,4.6-5.8,5.1c-3.7,0.5-7.1-1-7.7-3.3
		C129.1,482.2,131.7,479.9,135.4,479.4z"/>
	<path class="st5" d="M46.5,493.3c4.4,5.8,29.9,10.3,37,13.2c10.1-5.8,35.6-25.7,27.3-26.7c-8.3-1-35.3-3.4-49.3,0.1
		C54.8,481.6,50,486.7,46.5,493.3L46.5,493.3z"/>
	<path class="st6" d="M470,518.4c0,0,3.1,32.6,2.1,42.2c-6.6,5.3-16.8,8.2-50.8,9.2c-33.9,1.1-122.5-3.7-163.3-3.7s-92.5,0-131-6.2
		s-88.9-18.6-92-26.3c-3.1-7.7,2.1-28.1,3.9-33.1c1.5-4.3,6-7.8,7.2-11.5c40.9,19.2,161.6,31.6,238.1,32.7
		C361.4,522.7,470,518.4,470,518.4L470,518.4z"/>
	<path class="st7" d="M144.9,562.7c1.2-12.3,5.8-34.5,9.8-50.8"/>
	<path class="st8" d="M462.7,565l-0.4-38.9l7.9-1.3"/>
	<path class="st9" d="M147.5,543.5c0,0,41.9,4.7,70.3,6c26.2,1.2,95.6,2.2,114.9,2.2c21.8,0,92.9,1.9,107,1.6
		c14.2-0.3,23-3.7,23-3.7"/>
	<path class="st10" d="M95.9,500.9c0,0,82.6-10.3,120.5-20.1c37.9-9.8,60.2-28.8,87.8-59.7c27.5-30.9,31.7-58.6,50.9-89.6"/>
	<path class="st11" d="M327.3,349.3c-6-7.1-7.7-9-16.6-11.2c-3.3,1.7-7.1,8-7.6,10.6c8.1,0,9.5,4.8,21.7,5.4
		C325.8,352.5,326.4,352,327.3,349.3L327.3,349.3z"/>
	<path class="st11" d="M310.4,380.5c-6-7.1-8.3-8.4-17.2-10.6c-3.3,1.7-7.1,8-7.6,10.6c8.1,0,9.5,4.2,21.8,4.8
		C308.3,383.6,309.4,383.2,310.4,380.5L310.4,380.5z"/>
	<path class="st11" d="M289.5,408.4c-6-7.1-6.9-14.5-15.8-16.7c-3.3,1.7-6.8,6.4-7.2,9c6.5,4.8,11.4,5.2,21.4,13
		C288.9,412.2,288.6,411.1,289.5,408.4L289.5,408.4z"/>
	<path class="st11" d="M265.5,434.1c0.2-4.2-5.5-12.3-14.4-14.5c-3.3,1.7-6.9,4.3-7.3,6.9c4.2,2.4,10.2,10.5,19.2,12.5
		C264,437.3,264.6,436.8,265.5,434.1L265.5,434.1z"/>
	<path class="st11" d="M236.8,452.8c-2.5-4.8-2.1-10.7-4.9-17.4c-3.3,1.7-9.5,3-9.9,5.6c1.6,4.7,1.6,10.6,10,15.5
		C234.7,455.8,235.9,455.6,236.8,452.8L236.8,452.8z"/>
	<path class="st11" d="M205.4,466.6c-0.7-5.4-1.2-14.7,1.2-20.2c-3.6,0.4-9.8,2.3-11.1,4.6c-0.1,5,0.6,10.6,2.9,17.5
		C201,468.3,203.4,467.7,205.4,466.6L205.4,466.6z"/>
	<path class="st11" d="M172.4,475.4c1.8-5.5,3.1-10.3,3.5-15.5c-3.7-0.2-7.5,0.8-9.2,2.8c-2.1,2.8-4,9-0.4,14.2
		C169,477.7,170.3,477.3,172.4,475.4L172.4,475.4z"/>
	<path class="st11" d="M139.2,482.8c0.2-5.5,3.9-9.9,4.6-12.9c-3.7-0.2-10.2,1.3-11.9,3.3c-1.4,3.8-1.9,6.3,1.4,10.2
		C135.9,484.4,137.1,484.8,139.2,482.8L139.2,482.8z"/>
</g>
<line class="st12" x1="498" y1="91.5" x2="498" y2="348.2"/>
<rect x="516" y="92" class="st13" width="280" height="260"/>
<g class="st14">
</g>
<rect x="923" y="144" class="st13" width="6" height="0"/>
<g class="st14">
</g>
<g class="st14">
</g>
<rect x="882" y="189" class="st13" width="5" height="6"/>
<text transform="matrix(1 0 0 1 515 195)"><tspan x="0" y="0" class="st15 st16">Shoe</tspan><tspan x="0" y="144" class="st15 st16">shop</tspan></text>
</svg>
